<svg width="22" height="22" viewBox="0 0 22 22" fill="none" xmlns="http://www.w3.org/2000/svg">
<g clip-path="url(#clip0_6_1554)">
<path d="M15.5833 2.75H4.58333C3.56583 2.75 2.75 3.575 2.75 4.58333V17.4167C2.75 18.425 3.56583 19.25 4.58333 19.25H17.4167C18.425 19.25 19.25 18.425 19.25 17.4167V6.41667L15.5833 2.75ZM11 17.4167C9.47833 17.4167 8.25 16.1883 8.25 14.6667C8.25 13.145 9.47833 11.9167 11 11.9167C12.5217 11.9167 13.75 13.145 13.75 14.6667C13.75 16.1883 12.5217 17.4167 11 17.4167ZM13.75 8.25H4.58333V4.58333H13.75V8.25Z" fill="#0E0E12"/>
</g>
<defs>
<clipPath id="clip0_6_1554">
<rect width="22" height="22" fill="white"/>
</clipPath>
</defs>
</svg>
