<svg width="22" height="22" viewBox="0 0 22 22" fill="none" xmlns="http://www.w3.org/2000/svg">
<g clip-path="url(#clip0_6_1463)">
<path d="M16.5 14.74C15.8033 14.74 15.18 15.015 14.7033 15.4458L8.1675 11.6417C8.21333 11.4308 8.25 11.22 8.25 11C8.25 10.78 8.21333 10.5692 8.1675 10.3583L14.63 6.59084C15.125 7.04918 15.7758 7.33334 16.5 7.33334C18.0217 7.33334 19.25 6.10501 19.25 4.58334C19.25 3.06168 18.0217 1.83334 16.5 1.83334C14.9783 1.83334 13.75 3.06168 13.75 4.58334C13.75 4.80334 13.7867 5.01418 13.8325 5.22501L7.37 8.99251C6.875 8.53418 6.22417 8.25001 5.5 8.25001C3.97833 8.25001 2.75 9.47834 2.75 11C2.75 12.5217 3.97833 13.75 5.5 13.75C6.22417 13.75 6.875 13.4658 7.37 13.0075L13.8967 16.8208C13.8508 17.0133 13.8233 17.215 13.8233 17.4167C13.8233 18.8925 15.0242 20.0933 16.5 20.0933C17.9758 20.0933 19.1767 18.8925 19.1767 17.4167C19.1767 15.9408 17.9758 14.74 16.5 14.74Z" fill="#0E0E12"/>
</g>
<defs>
<clipPath id="clip0_6_1463">
<rect width="22" height="22" fill="white"/>
</clipPath>
</defs>
</svg>
